# xmcd CD database file
#
# Track frame offsets:
#	150
#	20298
#	39273
#	57040
#	71515
#	95248
#	113043
#	132168
#	149793
#	172218
#
# Disc length: 2383 seconds
#
# Revision: 3
# Processed by: cddbd v1.5.1PL2 Copyright (c) Steve Scherf et al.
# Submitted via: CDex 1.51
#
DISCID=8f094d0a
DTITLE=浜田麻里 - ROMANTIC NIGHT
DYEAR=1983
DGENRE=Heavy Metal
TTITLE0=DON'T CHANGE YOUR MIND
TTITLE1=VIOLENCE FIRE
TTITLE2=FROM LONG AGO
TTITLE3=XANADU
TTITLE4=LOST MY HEART
TTITLE5=ROMANTIC NIGHT
TTITLE6=SHADOW
TTITLE7=CAN'T STOP THE ROCK'N ROLL
TTITLE8=JUMPING HIGH
TTITLE9=SO LONG
EXTD=YEAR: 1983
EXTT0=
EXTT1=
EXTT2=
EXTT3=
EXTT4=
EXTT5=
EXTT6=
EXTT7=
EXTT8=
EXTT9=
PLAYORDER=
